<svg width="78" height="78" viewBox="0 0 78 78" fill="none" xmlns="http://www.w3.org/2000/svg">
<path d="M39 0C17.4954 0 0 17.4954 0 39C0 60.5046 17.4954 78 39 78C60.5046 78 78 60.5046 78 39C78 17.4954 60.5046 0 39 0ZM39 70.2C21.7971 70.2 7.8 56.2029 7.8 39C7.8 21.7971 21.7971 7.8 39 7.8C56.2029 7.8 70.2 21.7971 70.2 39C70.2 56.2029 56.2029 70.2 39 70.2Z" fill="#3597D0"/>
<path d="M31.1965 45.1892L22.2304 36.2387L16.7236 41.7611L31.2043 56.2106L57.3577 30.0572L51.8431 24.5426L31.1965 45.1892Z" fill="#3597D0"/>
</svg>
