<svg width="11" height="12" viewBox="0 0 11 12" fill="none" xmlns="http://www.w3.org/2000/svg">
<path d="M9.12864 9.64898L6.54045 7.00797C6.94208 6.47814 7.15934 5.83034 7.15934 5.14899C7.15934 4.3334 6.8474 3.56865 6.28332 2.99204C5.71924 2.41543 4.9678 2.09814 4.16951 2.09814C3.37123 2.09814 2.61979 2.41645 2.05571 2.99204C1.49063 3.56763 1.17969 4.3334 1.17969 5.14899C1.17969 5.96356 1.49163 6.73034 2.05571 7.30594C2.61979 7.88254 3.37023 8.19983 4.16951 8.19983C4.83724 8.19983 5.47109 7.97814 5.99032 7.56933L8.57851 10.2093C8.5861 10.2171 8.59511 10.2232 8.60503 10.2274C8.61495 10.2316 8.62558 10.2338 8.63632 10.2338C8.64705 10.2338 8.65768 10.2316 8.6676 10.2274C8.67752 10.2232 8.68653 10.2171 8.69412 10.2093L9.12864 9.76695C9.13624 9.75921 9.14226 9.75001 9.14637 9.73989C9.15048 9.72977 9.1526 9.71892 9.1526 9.70797C9.1526 9.69701 9.15048 9.68616 9.14637 9.67604C9.14226 9.66592 9.13624 9.65673 9.12864 9.64898ZM5.74814 6.75983C5.32558 7.19 4.76549 7.42695 4.16951 7.42695C3.57354 7.42695 3.01345 7.19 2.59089 6.75983C2.16932 6.32865 1.93711 5.75712 1.93711 5.14899C1.93711 4.54085 2.16932 3.96831 2.59089 3.53814C3.01345 3.10797 3.57354 2.87103 4.16951 2.87103C4.76549 2.87103 5.32658 3.10696 5.74814 3.53814C6.16971 3.96933 6.40192 4.54085 6.40192 5.14899C6.40192 5.75712 6.16971 6.32967 5.74814 6.75983Z" fill="black"/>
</svg>
