<svg width="27" height="29" viewBox="0 0 27 29" fill="none" xmlns="http://www.w3.org/2000/svg">
<path d="M8.4375 26.7858C9.36948 26.7858 10.125 25.9863 10.125 25.0001C10.125 24.0138 9.36948 23.2144 8.4375 23.2144C7.50552 23.2144 6.75 24.0138 6.75 25.0001C6.75 25.9863 7.50552 26.7858 8.4375 26.7858Z" fill="white"/>
<path d="M20.25 26.7858C21.182 26.7858 21.9375 25.9863 21.9375 25.0001C21.9375 24.0138 21.182 23.2144 20.25 23.2144C19.318 23.2144 18.5625 24.0138 18.5625 25.0001C18.5625 25.9863 19.318 26.7858 20.25 26.7858Z" fill="white"/>
<path d="M23.625 6.25011H4.91062L4.21875 2.50011C4.1793 2.2954 4.07327 2.11181 3.9191 1.9813C3.76493 1.85078 3.57239 1.78161 3.375 1.78583H0V3.57154H2.68313L5.90625 20.7144C5.9457 20.9191 6.05173 21.1027 6.2059 21.2332C6.36007 21.3637 6.55261 21.4329 6.75 21.4287H21.9375V19.643H7.44187L6.75 16.0715H21.9375C22.1325 16.0766 22.3232 16.0099 22.477 15.883C22.6309 15.756 22.7384 15.5765 22.7812 15.3751L24.4688 7.3394C24.497 7.20692 24.4964 7.06936 24.4668 6.93719C24.4373 6.80503 24.3796 6.68173 24.2983 6.57669C24.2169 6.47165 24.114 6.38764 23.9973 6.33105C23.8806 6.27446 23.7533 6.24678 23.625 6.25011ZM21.2625 14.2858H6.42937L5.24812 8.03583H22.5703L21.2625 14.2858Z" fill="white"/>
</svg>
