<svg width="30" height="28" viewBox="0 0 30 28" fill="none" xmlns="http://www.w3.org/2000/svg">
<path d="M20.7223 0.0895727C21.0519 -0.101808 21.4772 0.025779 21.6579 0.355379L28.0373 11.3917C28.2287 11.7 28.1117 12.1466 27.7821 12.3273L27.7502 12.3486C24.0821 14.4644 20.4033 16.5909 16.7352 18.7173C16.395 18.8981 15.9803 18.7917 15.7889 18.4621L9.42019 7.42584C9.23944 7.08561 9.33514 6.67095 9.66474 6.4902L20.7223 0.0895727ZM20.818 1.63125L18.2024 3.14103L19.9142 6.08617C20.095 6.39451 19.9887 6.84107 19.6484 7.02181L16.193 9.02068C15.8633 9.21206 15.4381 9.09511 15.2467 8.75488L13.5349 5.80974L10.9512 7.31952L16.6395 17.1756L19.2444 15.6765L17.5432 12.7313C17.3519 12.3911 17.4582 11.9765 17.7984 11.7957L21.2645 9.79684C21.5729 9.60546 22.0194 9.71178 22.2002 10.0307L23.9013 12.9759L26.485 11.4874L20.818 1.63125ZM15.757 19.3553C16.2993 19.3553 16.8203 19.4616 17.3093 19.6636L28.2818 13.3374C28.8241 13.0184 29.5258 13.2098 29.8554 13.7627C30.1531 14.3156 29.983 15.0173 29.4195 15.3363L19.1275 21.2797C19.4677 21.8645 19.6803 22.5556 19.6803 23.2892C19.6803 24.3631 19.2338 25.3412 18.5214 26.0536C17.8091 26.7872 16.8309 27.2125 15.757 27.2125C14.6513 27.2125 13.6731 26.7766 12.9714 26.0536L12.8969 26.0004C12.2377 25.2881 11.8231 24.3418 11.8231 23.2998C11.8231 22.2153 12.2696 21.2265 12.9714 20.5142L13.0671 20.4078L3.93394 4.56576H1.14829C0.510349 4.56576 0 4.03415 0 3.40684C0 2.77954 0.510349 2.25856 1.14829 2.25856H4.60377C5.05033 2.25856 5.45436 2.52436 5.6351 2.91776L15.1723 19.3765C15.3424 19.3659 15.5444 19.3553 15.757 19.3553ZM16.9053 22.1303C16.597 21.8432 16.2036 21.6518 15.757 21.6518C15.2998 21.6518 14.8852 21.8432 14.6087 22.1303C14.311 22.428 14.1197 22.8214 14.1197 23.2892C14.1197 23.7039 14.2791 24.0972 14.5662 24.3843L14.6194 24.4268C14.8958 24.7245 15.3105 24.9053 15.7677 24.9053C16.2142 24.9053 16.6076 24.7245 16.9159 24.4268V24.4375C17.203 24.1504 17.3731 23.7464 17.3731 23.2892C17.3625 22.832 17.1818 22.428 16.9053 22.1303ZM17.0116 3.83213L14.747 5.1399L16.1185 7.479L18.3726 6.18186L17.0116 3.83213ZM21.339 11.3173L19.0743 12.625L20.4352 14.9748L22.6893 13.6564L21.339 11.3173Z" fill="#5D5D5D"/>
</svg>
