<svg width="20" height="21" viewBox="0 0 20 21" fill="none" xmlns="http://www.w3.org/2000/svg">
<path d="M17.3651 3.91992C16.9395 3.4854 16.4342 3.1407 15.8779 2.90553C15.3217 2.67036 14.7255 2.54932 14.1235 2.54932C13.5214 2.54932 12.9252 2.67036 12.369 2.90553C11.8128 3.1407 11.3074 3.4854 10.8818 3.91992L9.99847 4.82128L9.11514 3.91992C8.25539 3.04263 7.08933 2.54977 5.87347 2.54977C4.65761 2.54977 3.49155 3.04263 2.6318 3.91992C1.77206 4.79721 1.28906 5.98707 1.28906 7.22774C1.28906 8.46841 1.77206 9.65827 2.6318 10.5356L3.51514 11.4369L9.99847 18.0526L16.4818 11.4369L17.3651 10.5356C17.791 10.1012 18.1288 9.58558 18.3592 9.01801C18.5897 8.45044 18.7083 7.8421 18.7083 7.22774C18.7083 6.61338 18.5897 6.00504 18.3592 5.43747C18.1288 4.8699 17.791 4.35423 17.3651 3.91992V3.91992Z" stroke="#7D8082" stroke-width="2" stroke-linecap="round" stroke-linejoin="round"/>
</svg>
