<svg width="18" height="20" viewBox="0 0 18 20" fill="none" xmlns="http://www.w3.org/2000/svg">
<path d="M9.11242 5.61377C8.35119 5.61377 7.62113 5.92234 7.08286 6.4716C6.54459 7.02086 6.24219 7.76581 6.24219 8.54258C6.24219 9.31935 6.54459 10.0643 7.08286 10.6136C7.62113 11.1628 8.35119 11.4714 9.11242 11.4714C9.87366 11.4714 10.6037 11.1628 11.142 10.6136C11.6803 10.0643 11.9827 9.31935 11.9827 8.54258C11.9827 7.76581 11.6803 7.02086 11.142 6.4716C10.6037 5.92234 9.87366 5.61377 9.11242 5.61377ZM7.43812 8.54258C7.43812 8.08947 7.61452 7.65491 7.92851 7.33451C8.2425 7.01411 8.66837 6.83411 9.11242 6.83411C9.55648 6.83411 9.98234 7.01411 10.2963 7.33451C10.6103 7.65491 10.7867 8.08947 10.7867 8.54258C10.7867 8.9957 10.6103 9.43025 10.2963 9.75065C9.98234 10.0711 9.55648 10.2511 9.11242 10.2511C8.66837 10.2511 8.2425 10.0711 7.92851 9.75065C7.61452 9.43025 7.43812 8.9957 7.43812 8.54258Z" fill="#757575"/>
<path d="M15.3277 13.6678L10.5019 18.8957C10.323 19.0896 10.1072 19.244 9.8676 19.3496C9.62804 19.4552 9.36985 19.5096 9.1089 19.5096C8.84796 19.5096 8.58977 19.4552 8.35021 19.3496C8.11065 19.244 7.89478 19.0896 7.71588 18.8957L2.89006 13.6678H2.90824L2.90011 13.658L2.89006 13.6458C1.65141 12.151 0.973282 10.2559 0.976574 8.2983C0.976574 3.7152 4.61747 0 9.1089 0C13.6003 0 17.2412 3.7152 17.2412 8.2983C17.2445 10.2559 16.5664 12.151 15.3277 13.6458L15.3177 13.658L15.3096 13.6678H15.3277ZM14.3983 12.8775C15.4641 11.5999 16.0482 9.97612 16.0453 8.2983C16.0453 4.38931 12.9397 1.22034 9.1089 1.22034C5.2781 1.22034 2.17251 4.38931 2.17251 8.2983C2.17251 10.0458 2.79152 11.643 3.81954 12.8775L3.96688 13.0547L8.58652 18.0586C8.65361 18.1313 8.73456 18.1892 8.82439 18.2288C8.91423 18.2684 9.01105 18.2888 9.1089 18.2888C9.20676 18.2888 9.30358 18.2684 9.39342 18.2288C9.48325 18.1892 9.5642 18.1313 9.63129 18.0586L14.2509 13.0547L14.3983 12.8775Z" fill="#757575"/>
</svg>
