<svg width="30" height="29" viewBox="0 0 30 29" fill="none" xmlns="http://www.w3.org/2000/svg">
<path d="M1.18166 10.0838L18.0618 0.348696C18.1214 0.318925 18.1809 0.289154 18.2702 0.259383C18.8359 -0.0383268 19.4611 -0.0680978 19.9969 0.110528C20.503 0.289154 20.9794 0.616636 21.3069 1.12274C21.3664 1.18228 21.3962 1.2716 21.4557 1.33114L26.2191 9.63725H27.7076C28.3626 9.63725 28.958 9.90519 29.3748 10.3815C29.7618 10.8281 30 11.4235 30 12.0785V25.6541C30 26.309 29.7618 26.9044 29.3748 27.3212C28.958 27.7976 28.3626 28.0953 27.7076 28.0953H8.02899C7.37403 28.0953 6.77861 27.7976 6.36182 27.3212C5.97479 26.9044 5.70685 26.309 5.70685 25.6541V22.7365L0.348072 13.4479C0.0205911 12.8525 -0.068722 12.2273 0.0503621 11.6617C0.169446 11.0067 0.556469 10.4708 1.12212 10.1136L1.18166 10.0838ZM8.05876 11.9296L8.02899 11.9892V12.0189V12.0487V12.0785V12.1082V12.138V22.4983V22.5281V25.7136C8.02899 25.7731 8.02899 25.8029 8.05876 25.8327H27.6779C27.7076 25.8029 27.7076 25.7731 27.7076 25.7136V12.0785C27.7076 12.0487 27.6779 11.9594 27.6779 11.9594H8.05876V11.9296ZM9.57709 15.4426H14.013C14.4 15.4426 14.6977 15.7403 14.6977 16.1571V16.1869V20.593C14.6977 20.98 14.4 21.2777 14.013 21.2777H13.9832H9.57709C9.19006 21.2777 8.89235 20.9502 8.89235 20.593V20.5632V16.1571C8.86258 15.7403 9.19006 15.4426 9.57709 15.4426ZM13.3282 16.8121H10.2618V19.8785H13.3282V16.8121ZM8.86258 23.2426C8.86258 22.8556 9.16029 22.5579 9.57709 22.5579C9.96411 22.5579 10.2618 22.8556 10.2618 23.2426V24.5228C10.2618 24.9098 9.96411 25.2075 9.57709 25.2075C9.19006 25.2075 8.86258 24.9098 8.86258 24.5228V23.2426ZM15.4122 23.2426C15.4122 22.8556 15.7099 22.5579 16.0969 22.5579C16.484 22.5579 16.7817 22.8556 16.7817 23.2426V24.5228C16.7817 24.9098 16.484 25.2075 16.0969 25.2075C15.7099 25.2075 15.4122 24.9098 15.4122 24.5228V23.2426ZM21.9916 23.2426C21.9916 22.8556 22.2893 22.5579 22.6763 22.5579C23.0634 22.5579 23.3611 22.8556 23.3611 23.2426V24.5228C23.3611 24.9098 23.0634 25.2075 22.6763 25.2075C22.3191 25.2075 21.9916 24.9098 21.9916 24.5228V23.2426ZM10.7977 23.2426C10.7977 22.8556 11.0954 22.5579 11.4824 22.5579C11.8695 22.5579 12.1672 22.8556 12.1672 23.2426V24.5228C12.1672 24.9098 11.8695 25.2075 11.4824 25.2075C11.0954 25.2075 10.7977 24.9098 10.7977 24.5228V23.2426ZM17.3473 23.2426C17.3473 22.8556 17.645 22.5579 18.0618 22.5579C18.4488 22.5579 18.7466 22.8556 18.7466 23.2426V24.5228C18.7466 24.9098 18.4488 25.2075 18.0618 25.2075C17.6748 25.2075 17.3473 24.9098 17.3473 24.5228V23.2426ZM23.8969 23.2426C23.8969 22.8556 24.1947 22.5579 24.5817 22.5579C24.9687 22.5579 25.2664 22.8556 25.2664 23.2426V24.5228C25.2664 24.9098 24.9687 25.2075 24.5817 25.2075C24.1947 25.2075 23.8969 24.9098 23.8969 24.5228V23.2426ZM12.703 23.2426C12.703 22.8556 13.0008 22.5579 13.3878 22.5579C13.7748 22.5579 14.0725 22.8556 14.0725 23.2426V24.5228C14.0725 24.9098 13.7748 25.2075 13.3878 25.2075C13.0008 25.2075 12.703 24.9098 12.703 24.5228V23.2426ZM19.2824 23.2426C19.2824 22.8556 19.5801 22.5579 19.9672 22.5579C20.3542 22.5579 20.6519 22.8556 20.6519 23.2426V24.5228C20.6519 24.9098 20.3244 25.2075 19.9672 25.2075C19.5801 25.2075 19.2824 24.9098 19.2824 24.5228V23.2426ZM25.8321 23.2426C25.8321 22.8556 26.1298 22.5579 26.5168 22.5579C26.9038 22.5579 27.2015 22.8556 27.2015 23.2426V24.5228C27.2015 24.9098 26.9038 25.2075 26.5168 25.2075C26.1298 25.2075 25.8321 24.9098 25.8321 24.5228V23.2426ZM19.2824 2.31358L2.34273 12.0785L2.31296 12.1082H2.28319H2.31296C2.28319 12.138 2.31296 12.1976 2.34273 12.2571L5.73662 18.122V12.0785C5.73662 10.7685 6.74884 9.63725 8.05876 9.63725H23.5992L19.4313 2.43267L19.4015 2.4029C19.3717 2.37313 19.3122 2.31358 19.2824 2.31358Z" fill="#6D6E71"/>
</svg>
