<svg width="31" height="32" viewBox="0 0 31 32" fill="none" xmlns="http://www.w3.org/2000/svg">
<path d="M15.6668 0.5C7.16683 0.5 0.333496 7.33333 0.333496 15.8333C0.333496 20 2.00016 23.8333 5.00016 26.8333L5.3335 27.1667C8.00016 29.8333 11.8335 31.3333 15.6668 31.3333C19.5002 31.3333 23.1668 29.8333 26.0002 27.3333C26.1668 27.3333 26.1668 27.1667 26.3335 27C29.3335 24 31.0002 20.1667 31.0002 16C31.0002 7.33333 24.0002 0.5 15.6668 0.5ZM15.6668 28.5C12.5002 28.5 9.66683 27.3333 7.3335 25.3333C7.66683 22.1667 11.3335 19.8333 15.6668 19.8333C20.1668 19.8333 23.6668 22.1667 24.1668 25.3333C21.6668 27.5 18.6668 28.5 15.6668 28.5ZM11.0002 12.8333C11.0002 10.3333 13.1668 8.16667 15.6668 8.16667C18.1668 8.16667 20.3335 10.3333 20.3335 12.8333C20.3335 15.3333 18.1668 17.5 15.6668 17.5C13.1668 17.5 11.0002 15.3333 11.0002 12.8333ZM26.0002 23.3333C25.1668 21.3333 23.5002 19.6667 21.1668 18.6667C20.8335 18.5 20.5002 18.3333 20.1668 18.3333C21.8335 17 22.8335 15 22.8335 12.8333C22.8335 9 19.5002 5.66667 15.6668 5.66667C11.8335 5.66667 8.3335 8.83333 8.3335 12.8333C8.3335 14.6667 9.16683 16.3333 10.3335 17.6667C10.5002 17.8333 10.6668 18 10.8335 18.1667C8.3335 19.1667 6.33349 20.6667 5.50016 22.5C5.33349 22.6667 5.33349 23 5.16683 23.3333C3.50016 21 2.66683 18.5 2.66683 15.8333C2.66683 8.83333 8.33349 3 15.5002 3C22.6668 3 28.3335 8.66667 28.3335 15.8333C28.3335 18 27.6668 20.3333 26.6668 22.3333C26.5002 22.6667 26.1668 23 26.0002 23.3333Z" fill="#2F80ED"/>
</svg>
