<svg width="130" height="128" viewBox="0 0 130 128" fill="none" xmlns="http://www.w3.org/2000/svg">
<path d="M77.098 50.8276C77.1844 53.4242 76.4308 55.9795 74.949 58.1136C73.4673 60.2478 71.3366 61.8469 68.8735 62.6735C68.8735 62.6735 68.3429 62.8592 68.3429 63.2439V66.1225C68.3429 67.0161 67.9879 67.8731 67.356 68.505C66.7241 69.1368 65.8671 69.4918 64.9735 69.4918C64.0798 69.4918 63.2228 69.1368 62.591 68.505C61.9591 67.8731 61.6041 67.0161 61.6041 66.1225V63.2439C61.6221 61.6969 62.1245 60.1944 63.0406 58.9476C63.9566 57.7008 65.2403 56.7724 66.7112 56.2929C67.8194 55.9331 68.7783 55.2185 69.44 54.2596C70.1017 53.3006 70.4294 52.1505 70.3724 50.9867C70.2898 49.6063 69.6917 48.3072 68.6968 47.3466C67.7019 46.3861 66.3825 45.8341 65 45.8C63.9902 45.7977 63.0008 46.0835 62.1478 46.624C61.2949 47.1644 60.6138 47.937 60.1847 48.851C60.0094 49.2746 59.7495 49.6579 59.4209 49.9776C59.0923 50.2972 58.7019 50.5465 58.2737 50.7101C57.8454 50.8736 57.3883 50.9481 56.9303 50.9289C56.4723 50.9097 56.023 50.7972 55.6099 50.5984C55.1969 50.3995 54.8288 50.1185 54.5281 49.7725C54.2274 49.4264 54.0005 49.0227 53.8612 48.5859C53.722 48.1491 53.6733 47.6886 53.7183 47.2324C53.7632 46.7761 53.9007 46.3339 54.1224 45.9327C55.0976 43.8823 56.6325 42.1493 58.5501 40.9335C60.4676 39.7177 62.6897 39.0687 64.9602 39.0612H65C68.1439 39.0865 71.1567 40.3242 73.4106 42.5163C75.6644 44.7083 76.9853 47.6856 77.098 50.8276ZM65 73.5112C64.331 73.5112 63.677 73.7096 63.1207 74.0813C62.5644 74.453 62.1309 74.9813 61.8748 75.5994C61.6188 76.2175 61.5518 76.8976 61.6823 77.5538C61.8129 78.21 62.135 78.8127 62.6081 79.2858C63.0812 79.7589 63.6839 80.081 64.3401 80.2115C64.9962 80.3421 65.6764 80.2751 66.2945 80.0191C66.9126 79.763 67.4409 79.3295 67.8126 78.7732C68.1843 78.2169 68.3827 77.5629 68.3827 76.8939C68.3827 75.9967 68.0263 75.1364 67.3919 74.502C66.7575 73.8676 65.8971 73.5112 65 73.5112ZM130 123.336C129.996 124.524 129.523 125.662 128.683 126.502C127.843 127.342 126.704 127.816 125.516 127.819H4.44388C3.26273 127.805 2.13449 127.327 1.30296 126.488C0.471436 125.649 0.00340229 124.517 0 123.336C0 100.519 28.7724 91.4194 41.1224 88.5541C41.196 88.5359 41.2612 88.4931 41.307 88.4328C41.3529 88.3724 41.3767 88.2982 41.3745 88.2225V83.3939C38.5127 79.6455 36.3799 75.3933 35.0867 70.8582C31.8367 67.6745 30.4041 62.6735 29.6347 59.8878C28.3745 55.4571 27.1143 49.0235 30.5765 44.4469L30.7357 44.248C30.5102 42.9214 30.3378 41.5949 30.2316 40.2684C28.6663 29.8684 29.8735 22.1082 33.8265 17.2531C35.9521 14.5613 39.0472 12.809 42.449 12.3714C44.4653 5.40715 54.3082 -1.38469 63.2357 0.432659C71.898 2.2898 89.9786 0.246945 90.2041 0.220414C90.4322 0.199209 90.6599 0.265607 90.8408 0.406128C90.9295 0.479708 91.0023 0.57058 91.0548 0.673207C91.1072 0.775835 91.1382 0.888067 91.1459 1.00307C91.1788 2.19993 90.9702 3.39115 90.5326 4.50563C90.095 5.62012 89.4374 6.63503 88.599 7.4898C103.058 17.1337 100.976 36.1694 99.3041 44.2214L99.45 44.4204C102.912 49.0102 101.652 55.4306 100.405 59.8612C99.6357 62.5939 98.2031 67.6612 94.9663 70.8582C93.6657 75.362 91.533 79.5824 88.6786 83.301V88.2092C88.6787 88.2844 88.7034 88.3575 88.7489 88.4174C88.7944 88.4772 88.8582 88.5206 88.9306 88.5408C101.267 91.4194 130 100.533 130 123.336ZM84.4469 96.3541C82.4533 95.2364 80.9419 93.4227 80.202 91.2602C78.1797 92.5947 76.0069 93.6856 73.7286 94.5102C68.0812 96.5091 61.9188 96.5091 56.2714 94.5102C53.9821 93.6974 51.7996 92.6106 49.7714 91.2735C49.0208 93.4091 47.516 95.197 45.5398 96.301C47.7733 99.3559 50.7049 101.832 54.0901 103.524C57.4754 105.215 61.216 106.073 65 106.024C68.7772 106.077 72.5122 105.226 75.8946 103.544C79.277 101.863 82.2091 99.3974 84.4469 96.3541ZM88.4265 65.6051C88.8908 65.6051 90.549 64.8888 92.5786 57.6459C94.1704 52.0214 93.4939 49.9786 92.9633 49.2622C92.7277 48.9943 92.4266 48.7923 92.0893 48.676C91.7521 48.5597 91.3904 48.5332 91.0398 48.599C90.8972 48.6129 90.7535 48.5911 90.6214 48.5355C90.4894 48.4799 90.3733 48.3923 90.2837 48.2806C90.195 48.1679 90.1364 48.0346 90.1132 47.8931C90.09 47.7516 90.103 47.6065 90.151 47.4714V47.299C90.549 45.9725 92.2204 39.101 86.4102 34.8031C81.3031 35.9439 72.9326 36.249 61.6837 31.4469C56.1918 29.099 51.5755 29.0194 47.9939 31.2082C40.8041 35.5857 39.8224 47.6969 39.8092 47.8163C39.7922 48.0393 39.6879 48.2465 39.519 48.3931C39.3501 48.5396 39.1303 48.6136 38.9071 48.599H38.5224C38.2229 48.5756 37.9222 48.6263 37.647 48.7466C37.3717 48.8669 37.1302 49.0531 36.9439 49.2888C36.4 50.0051 35.7367 52.048 37.3286 57.6725C39.3714 64.8755 41.0296 65.552 41.4939 65.6316C41.6863 65.6444 41.8686 65.7223 42.0109 65.8525C42.1531 65.9827 42.2468 66.1574 42.2765 66.348C43.4439 73.8694 49.1347 83.5929 58.9112 86.9755C62.8067 88.3608 67.0606 88.3608 70.9561 86.9755C80.3347 83.5929 86.45 74.0551 87.6306 66.3612C87.653 66.157 87.7487 65.9679 87.8999 65.8288C88.0512 65.6898 88.2477 65.6103 88.4531 65.6051H88.4265Z" fill="url(#paint0_linear_98_5138)"/>
<defs>
<linearGradient id="paint0_linear_98_5138" x1="30.6667" y1="127.667" x2="30.6667" y2="4.33337" gradientUnits="userSpaceOnUse">
<stop stop-color="#3597D0"/>
<stop offset="1" stop-color="#1C628B"/>
</linearGradient>
</defs>
</svg>
