<svg width="30" height="31" viewBox="0 0 30 31" fill="none" xmlns="http://www.w3.org/2000/svg">
<path d="M24.2267 15.0107C24.2267 14.3692 23.7135 13.856 23.0934 13.856H16.144V6.92801C16.144 6.28653 15.6308 5.77334 14.9893 5.77334C14.3478 5.77334 13.8346 6.28653 13.8346 6.92801V15.0107C13.8346 15.6522 14.3478 16.1653 14.9893 16.1653H23.0934C23.7135 16.1653 24.2267 15.6522 24.2267 15.0107ZM27.6907 15.0107C27.6907 22.0242 22.0028 27.712 14.9893 27.712C7.97577 27.712 2.28795 22.0242 2.28795 15.0107C2.28795 7.99714 7.97577 2.30934 14.9893 2.30934C22.0028 2.30934 27.6907 7.99714 27.6907 15.0107ZM30 15.0107C30 6.71418 23.2858 0 15.0107 0C6.71418 0 0 6.71418 0 15.0107C0 23.3072 6.71418 30.0214 15.0107 30.0214C23.2858 30 30 23.2858 30 15.0107Z" fill="#6D6E71"/>
</svg>
