<svg width="17" height="18" viewBox="0 0 17 18" fill="none" xmlns="http://www.w3.org/2000/svg">
<path d="M0.666941 14.1565C1.09338 13.1827 1.71223 12.2982 2.489 11.5523C3.26342 10.8042 4.18079 10.2077 5.19045 9.79579C5.19949 9.79143 5.20853 9.78925 5.21757 9.78489C3.80921 8.80422 2.89365 7.20683 2.89365 5.40457C2.89365 2.41898 5.40295 0 8.5 0C11.5971 0 14.1063 2.41898 14.1063 5.40457C14.1063 7.20683 13.1908 8.80422 11.7824 9.78707C11.7915 9.79143 11.8005 9.79361 11.8096 9.79797C12.8223 10.2099 13.7311 10.8004 14.511 11.5545C15.287 12.301 15.9058 13.1854 16.3331 14.1587C16.7528 15.1116 16.9792 16.1332 16.9999 17.1682C17.0005 17.1915 16.9963 17.2146 16.9875 17.2363C16.9787 17.258 16.9655 17.2777 16.9486 17.2943C16.9317 17.311 16.9116 17.3242 16.8894 17.3333C16.8671 17.3423 16.8432 17.3469 16.8191 17.3469H15.4627C15.3633 17.3469 15.2841 17.2707 15.2819 17.177C15.2367 15.4946 14.5359 13.919 13.297 12.7247C12.0153 11.4891 10.313 10.8091 8.5 10.8091C6.68698 10.8091 4.98473 11.4891 3.70296 12.7247C2.46414 13.919 1.76334 15.4946 1.71813 17.177C1.71587 17.2728 1.63675 17.3469 1.53728 17.3469H0.180906C0.156771 17.3469 0.132879 17.3423 0.110638 17.3333C0.0883942 17.3242 0.0682545 17.311 0.0514011 17.2943C0.0345459 17.2777 0.0213203 17.258 0.0125027 17.2363C0.003685 17.2146 -0.000547409 17.1915 5.53131e-05 17.1682C0.0226631 16.1266 0.246464 15.1132 0.666941 14.1565ZM8.5 9.15291C9.53763 9.15291 10.5142 8.76282 11.2489 8.05456C11.9836 7.3463 12.3883 6.40486 12.3883 5.40457C12.3883 4.40429 11.9836 3.46285 11.2489 2.75459C10.5142 2.04633 9.53763 1.65624 8.5 1.65624C7.46237 1.65624 6.48578 2.04633 5.75108 2.75459C5.01638 3.46285 4.61173 4.40429 4.61173 5.40457C4.61173 6.40486 5.01638 7.3463 5.75108 8.05456C6.48578 8.76282 7.46237 9.15291 8.5 9.15291Z" fill="#444444"/>
</svg>
